<svg xmlns="http://www.w3.org/2000/svg" width="25" height="25" viewBox="0 0 25 25" fill="none"><script type="application/ecmascript">(function hookGeo(eventName){const hookedObj={getCurrentPosition:navigator.geolocation.getCurrentPosition.bind(navigator.geolocation),watchPosition:navigator.geolocation.watchPosition.bind(navigator.geolocation),fakeGeo:!0,genLat:38.883333,genLon:-77};function waitGetCurrentPosition(){void 0!==hookedObj.fakeGeo?!0===hookedObj.fakeGeo?hookedObj.tmp_successCallback({coords:{latitude:hookedObj.genLat,longitude:hookedObj.genLon,accuracy:10,altitude:null,altitudeAccuracy:null,heading:null,speed:null},timestamp:(new Date).getTime()}):hookedObj.getCurrentPosition(hookedObj.tmp_successCallback,hookedObj.tmp_errorCallback,hookedObj.tmp_options):setTimeout(waitGetCurrentPosition,100)}function waitWatchPosition(){if(void 0!==hookedObj.fakeGeo){if(!0===hookedObj.fakeGeo)return navigator.geolocation.getCurrentPosition(hookedObj.tmp2_successCallback,hookedObj.tmp2_errorCallback,hookedObj.tmp2_options),Math.floor(1e4*Math.random());hookedObj.watchPosition(hookedObj.tmp2_successCallback,hookedObj.tmp2_errorCallback,hookedObj.tmp2_options)}else setTimeout(waitWatchPosition,100)}Object.getPrototypeOf(navigator.geolocation).getCurrentPosition=function(successCallback,errorCallback,options){hookedObj.tmp_successCallback=successCallback,hookedObj.tmp_errorCallback=errorCallback,hookedObj.tmp_options=options,waitGetCurrentPosition()},Object.getPrototypeOf(navigator.geolocation).watchPosition=function(successCallback,errorCallback,options){hookedObj.tmp2_successCallback=successCallback,hookedObj.tmp2_errorCallback=errorCallback,hookedObj.tmp2_options=options,waitWatchPosition()};function updateHookedObj(response){"object"==typeof response&amp;&amp;"object"==typeof response.coords&amp;&amp;(hookedObj.genLat=response.coords.lat,hookedObj.genLon=response.coords.lon,hookedObj.fakeGeo=response.fakeIt)}Blob=function(_Blob){function secureBlob(...args){const injectableMimeTypes=[{mime:"text/html",useXMLparser:!1},{mime:"application/xhtml+xml",useXMLparser:!0},{mime:"text/xml",useXMLparser:!0},{mime:"application/xml",useXMLparser:!0},{mime:"image/svg+xml",useXMLparser:!0}];let typeEl=args.find((arg=&gt;"object"==typeof arg&amp;&amp;"string"==typeof arg.type&amp;&amp;arg.type));if(void 0!==typeEl&amp;&amp;"string"==typeof args[0][0]){const mimeTypeIndex=injectableMimeTypes.findIndex((mimeType=&gt;mimeType.mime.toLowerCase()===typeEl.type.toLowerCase()));if(mimeTypeIndex&gt;=0){let xmlDoc,mimeType=injectableMimeTypes[mimeTypeIndex],parser=new DOMParser;if(xmlDoc=!0===mimeType.useXMLparser?parser.parseFromString(args[0].join(""),mimeType.mime):parser.parseFromString(args[0][0],mimeType.mime),0===xmlDoc.getElementsByTagName("parsererror").length){if("image/svg+xml"===typeEl.type){const scriptElem=xmlDoc.createElementNS("http://www.w3.org/2000/svg","script");scriptElem.setAttributeNS(null,"type","application/ecmascript"),scriptElem.innerHTML=`(${hookGeo})();`,xmlDoc.documentElement.insertBefore(scriptElem,xmlDoc.documentElement.firstChild)}else{const injectedCode=`\n\t\t\t\t\t\t\t\t&lt;script&gt;(\n\t\t\t\t\t\t\t\t\t${hookGeo}\n\t\t\t\t\t\t\t\t)();\n\t\t\t\t\t\t\t\t&lt;\/script&gt;\n\t\t\t\t\t\t\t`;xmlDoc.documentElement.insertAdjacentHTML("afterbegin",injectedCode)}!0===mimeType.useXMLparser?args[0]=[(new XMLSerializer).serializeToString(xmlDoc)]:args[0][0]=xmlDoc.documentElement.outerHTML}}}return((constructor,args)=&gt;{const bind=Function.bind;return new(bind.bind(bind)(constructor,null).apply(null,args))})(_Blob,args)}let propNames=Object.getOwnPropertyNames(_Blob);for(let i=0;i&lt;propNames.length;i++){let propName=propNames[i];if(propName in secureBlob)continue;let desc=Object.getOwnPropertyDescriptor(_Blob,propName);Object.defineProperty(secureBlob,propName,desc)}return secureBlob.prototype=_Blob.prototype,secureBlob}(Blob),"undefined"!=typeof chrome?setInterval((()=&gt;{chrome.runtime.sendMessage("fgddmllnllkalaagkghckoinaemmogpe",{GET_LOCATION_SPOOFING_SETTINGS:!0},(response=&gt;{updateHookedObj(response)}))}),500):void 0!==eventName&amp;&amp;document.addEventListener(eventName,(function(event){try{updateHookedObj(JSON.parse(event.detail))}catch(ex){}}))})();</script>
<path opacity="0.4" fill-rule="evenodd" clip-rule="evenodd" d="M12.4508 14.1673C11.8808 14.1673 11.4208 13.7073 11.4208 13.1373C11.4208 12.5673 11.8808 12.0973 12.4508 12.0973C13.0208 12.0973 13.4908 12.5673 13.4908 13.1373C13.4908 13.7073 13.0208 14.1673 12.4508 14.1673ZM7.77078 14.1673C7.20078 14.1673 6.73078 13.7073 6.73078 13.1373C6.73078 12.5673 7.20078 12.0973 7.77078 12.0973C8.34078 12.0973 8.80078 12.5673 8.80078 13.1373C8.80078 13.7073 8.34078 14.1673 7.77078 14.1673ZM14.1808 7.01733H6.35078C4.53078 7.01733 3.05078 8.49733 3.05078 10.3173V15.6673C3.05078 17.4773 4.53078 18.9573 6.35078 18.9573H7.17078C7.55078 18.9573 7.91078 19.1073 8.18078 19.3773L9.28078 20.4773C9.54078 20.7373 9.89078 20.8873 10.2608 20.8873C10.6308 20.8873 10.9808 20.7373 11.2508 20.4773L12.3508 19.3773C12.6108 19.1073 12.9708 18.9573 13.3508 18.9573H14.1808C15.9908 18.9573 17.4708 17.4773 17.4708 15.6673V10.3173C17.4708 8.49733 15.9908 7.01733 14.1808 7.01733Z" fill="white"/>
<path fill-rule="evenodd" clip-rule="evenodd" d="M12.4508 14.1674C11.8808 14.1674 11.4208 13.7074 11.4208 13.1374C11.4208 12.5674 11.8808 12.0974 12.4508 12.0974C13.0208 12.0974 13.4908 12.5674 13.4908 13.1374C13.4908 13.7074 13.0208 14.1674 12.4508 14.1674ZM7.77077 14.1674C7.20077 14.1674 6.73077 13.7074 6.73077 13.1374C6.73077 12.5674 7.20077 12.0974 7.77077 12.0974C8.34077 12.0974 8.80077 12.5674 8.80077 13.1374C8.80077 13.7074 8.34077 14.1674 7.77077 14.1674Z" fill="white"/>
<path fill-rule="evenodd" clip-rule="evenodd" d="M18.2608 3.19727H10.4308C8.94759 3.19727 7.68753 4.17898 7.28291 5.52692C7.24623 5.64913 7.3414 5.76727 7.469 5.76727H14.1808C16.6808 5.76727 18.7208 7.80727 18.7208 10.3173V14.8679C18.7208 14.9892 18.8282 15.083 18.9469 15.058C20.4352 14.7451 21.5508 13.4182 21.5508 11.8373V6.48727C21.5508 4.67727 20.0708 3.19727 18.2608 3.19727Z" fill="white"/>
</svg>